<?xml version="1.0" standalone="no"?>
<!DOCTYPE svg PUBLIC "-//W3C//DTD SVG 20010904//EN"
 "http://www.w3.org/TR/2001/REC-SVG-20010904/DTD/svg10.dtd">
<svg version="1.0" xmlns="http://www.w3.org/2000/svg"
 width="652.000000pt" height="588.000000pt" viewBox="0 0 652.000000 588.000000"
 preserveAspectRatio="xMidYMid meet">
<metadata>
Created by potrace 1.16, written by Peter Selinger 2001-2019
</metadata>
<g transform="translate(0.000000,588.000000) scale(0.100000,-0.100000)"
fill="#000000" stroke="none">
<path d="M3749 5825 c-14 -8 -61 -59 -103 -114 -75 -98 -89 -134 -65 -158 9
-9 0 -28 -37 -77 -66 -87 -75 -90 -201 -75 -126 15 -198 3 -295 -48 -131 -68
-295 -274 -282 -353 8 -49 -25 -90 -70 -90 -32 0 -45 -15 -307 -360 -273 -360
-274 -360 -271 -405 3 -39 -1 -50 -27 -75 -16 -17 -39 -30 -51 -30 -12 0 -29
-4 -39 -9 -9 -5 -89 -104 -176 -220 -88 -115 -162 -210 -165 -211 -3 0 -61
183 -129 408 -68 224 -177 582 -242 796 -94 308 -125 399 -153 441 -43 65
-136 129 -209 145 -35 7 -188 10 -446 8 l-393 -3 -24 -28 c-42 -49 -27 -124
31 -152 28 -13 91 -15 415 -15 413 0 415 0 459 -56 11 -14 32 -65 47 -112 165
-540 585 -1932 588 -1947 10 -53 510 -1684 527 -1716 41 -81 115 -143 205
-173 46 -15 163 -16 1375 -14 l1324 3 55 26 c68 32 138 100 168 165 12 27 117
418 232 869 253 995 253 994 271 1023 8 13 30 33 49 45 33 21 49 22 303 27
l269 5 24 28 c35 40 32 90 -6 128 l-30 30 -287 -3 -288 -3 -55 -28 c-69 -35
-130 -95 -160 -154 -27 -54 -23 -40 -285 -1073 -122 -479 -212 -815 -223 -830
-10 -14 -38 -35 -63 -48 l-45 -22 -709 2 c-699 3 -709 3 -670 21 22 11 83 47
135 82 443 294 588 891 330 1362 -23 42 -36 73 -29 70 8 -3 52 -21 99 -40 l85
-34 121 -244 c137 -274 162 -306 262 -335 130 -38 380 37 601 179 139 90 190
164 191 273 0 87 -30 174 -121 355 l-79 157 22 88 c32 131 32 367 0 514 -94
418 -257 692 -478 802 -75 37 -92 41 -177 46 -152 8 -346 -44 -526 -139 -55
-30 -72 -35 -66 -22 70 171 71 264 5 430 -41 101 -39 118 18 193 44 59 51 64
87 64 38 1 42 5 118 104 85 111 101 154 77 212 -8 20 -70 73 -194 168 -99 76
-191 144 -203 150 -29 16 -82 14 -114 -3z m87 -68 c58 -34 354 -271 359 -288
5 -14 -11 -44 -60 -109 -59 -79 -69 -88 -84 -77 -71 52 -391 299 -395 305 -3
4 18 37 45 73 93 119 94 120 135 96z m-23 -387 c81 -62 149 -116 152 -120 3
-4 -9 -25 -27 -46 -58 -73 -88 -127 -88 -162 0 -18 16 -72 36 -120 36 -88 59
-232 37 -232 -18 0 -98 62 -143 113 -33 36 -70 62 -130 91 -76 37 -91 48 -140
113 -63 83 -124 131 -208 161 -60 22 -93 51 -131 114 l-22 37 43 6 c24 3 105
4 180 3 l136 -3 30 28 c16 16 47 53 68 82 22 30 44 53 50 51 6 -2 77 -54 157
-116z m-689 -154 c40 -62 74 -89 157 -122 83 -32 119 -61 184 -149 50 -68 61
-78 141 -115 64 -31 99 -56 137 -96 28 -31 77 -71 109 -91 32 -20 58 -40 58
-45 0 -24 -76 -150 -118 -197 l-47 -52 -445 340 c-245 188 -446 344 -448 349
-1 5 20 41 48 80 53 76 139 152 171 152 11 0 31 -20 53 -54z m134 -589 c215
-164 392 -302 392 -307 0 -4 -9 -15 -21 -26 -33 -29 -49 -69 -49 -117 0 -25
-6 -49 -13 -55 -10 -9 -114 65 -453 324 -241 185 -441 340 -442 345 -6 17 18
37 52 43 42 8 81 38 102 77 9 18 19 27 27 23 7 -4 189 -142 405 -307z m-191
-236 c241 -184 440 -336 442 -337 4 -3 -336 -451 -349 -459 -10 -6 -885 661
-885 675 0 14 338 460 347 457 3 -1 204 -152 445 -336z m1608 150 c157 -73
285 -252 373 -521 76 -234 102 -401 84 -557 -19 -164 -32 -198 -92 -251 -202
-178 -399 -265 -663 -292 -97 -10 -107 -9 -172 13 -82 28 -202 87 -265 130
-63 43 -194 171 -248 241 -113 147 -166 306 -145 433 30 174 140 145 292 -77
109 -159 163 -204 199 -168 23 23 11 49 -87 183 -129 175 -165 259 -165 390
-1 77 3 98 25 146 50 105 144 186 303 259 245 112 425 135 561 71z m-966 -333
c-20 -59 -25 -191 -10 -246 l10 -33 -32 8 c-86 21 -148 -7 -191 -88 -34 -62
-46 -183 -27 -281 13 -63 69 -192 112 -257 22 -32 22 -34 4 -27 -159 68 -259
89 -422 90 -125 1 -131 2 -116 19 9 9 30 17 48 17 30 0 46 19 296 347 145 191
270 357 277 370 9 17 10 28 2 43 -17 32 17 86 56 89 7 1 4 -18 -7 -51z m-1162
-248 c613 -468 564 -429 553 -450 -6 -11 -28 -24 -50 -30 -48 -13 -93 -50
-110 -90 -7 -16 -16 -30 -21 -30 -5 0 -191 139 -413 309 l-405 309 31 28 c42
40 58 76 58 127 0 44 15 70 37 65 6 -2 150 -109 320 -238z m-135 -311 c211
-161 389 -298 397 -305 12 -11 7 -16 -35 -34 -150 -63 -254 -132 -370 -247
-44 -42 -73 -70 -66 -61 8 9 12 27 10 40 -4 33 -42 35 -79 4 -60 -51 -182 -28
-243 45 -59 70 -74 136 -43 195 11 21 12 35 6 47 -12 21 -55 22 -63 2 -9 -23
-68 -55 -103 -55 -66 0 -78 14 -108 122 -26 89 -27 102 -14 122 29 47 314 416
321 416 4 0 180 -131 390 -291z m-512 -483 c40 -135 159 -226 296 -226 41 0
42 -1 46 -37 4 -29 -4 -57 -33 -118 -65 -136 -90 -241 -96 -397 -4 -88 -1
-166 7 -215 36 -226 144 -429 313 -590 84 -79 134 -116 239 -173 l73 -40 -155
0 c-85 0 -171 4 -189 10 -40 11 -89 54 -102 89 -12 31 -469 1538 -501 1651
l-23 85 56 1 57 1 12 -41z m3294 -186 c84 -170 108 -259 87 -323 -28 -84 -233
-218 -440 -287 -167 -56 -259 -43 -319 44 -42 62 -41 64 31 59 58 -5 79 -1
223 47 126 42 166 60 192 86 50 50 40 123 -25 174 -29 22 -68 21 -109 -5 -36
-23 -230 -84 -287 -91 -36 -4 -72 -1 -113 11 -56 15 -63 20 -82 61 -12 25 -22
48 -22 53 0 4 30 11 68 15 87 9 229 42 312 73 101 38 248 118 325 178 39 30
73 54 77 54 5 1 41 -67 82 -149z m-2188 -20 c74 -55 136 -100 140 -100 3 0 64
45 137 101 110 84 135 99 157 94 68 -17 234 -133 284 -198 l26 -34 -56 -162
c-55 -156 -56 -162 -38 -176 10 -7 73 -51 139 -98 l120 -84 -2 -59 c-3 -74
-35 -180 -81 -268 l-36 -69 -173 6 -172 6 -36 -117 c-67 -216 -65 -213 -94
-224 -42 -16 -229 -22 -308 -9 l-71 12 -27 87 c-14 48 -36 119 -48 157 -11 39
-25 75 -30 82 -6 9 -52 10 -178 6 l-168 -6 -41 84 c-42 88 -80 219 -80 275 0
31 8 39 138 130 75 53 139 99 141 100 2 2 -13 52 -34 111 -21 60 -40 113 -42
118 -2 6 9 18 25 27 15 9 77 82 138 162 60 80 115 146 123 146 8 0 74 -45 147
-100z"/>
<path d="M2983 2563 c-84 -59 -152 -113 -153 -118 0 -6 26 -89 58 -185 l59
-175 199 0 198 0 53 165 c29 91 55 172 58 181 4 12 -33 45 -142 124 -81 60
-155 110 -163 112 -8 2 -83 -45 -167 -104z"/>
<path d="M2953 856 c-104 -34 -185 -106 -232 -205 -22 -48 -26 -69 -26 -151 0
-84 3 -102 28 -152 54 -110 159 -188 279 -207 154 -25 319 63 386 207 24 50
27 70 27 157 0 90 -3 106 -28 155 -64 126 -180 201 -317 207 -45 2 -92 -3
-117 -11z m196 -166 c52 -26 97 -82 110 -137 39 -153 -106 -294 -259 -253 -66
18 -134 89 -148 155 -21 100 22 190 113 238 43 23 137 22 184 -3z"/>
<path d="M4353 852 c-70 -25 -129 -67 -174 -124 -52 -66 -74 -135 -74 -233 1
-98 30 -169 101 -245 205 -219 576 -102 624 198 25 155 -63 320 -209 388 -75
36 -193 43 -268 16z m200 -155 c18 -8 48 -32 68 -54 98 -108 69 -260 -60 -326
-85 -42 -163 -32 -231 29 -108 97 -87 274 39 341 51 27 133 31 184 10z"/>
</g>
</svg>
